STARTFONT 2.1
COMMENT 
COMMENT Copyright (C) 2012-2015 Uwe Waldmann
COMMENT 
COMMENT Permission is hereby granted, free of charge, to any person obtaining
COMMENT a copy of this font software and associated files (the "Software"),
COMMENT to deal in the Software without restriction, including without
COMMENT limitation the rights to use, copy, modify, merge, publish,
COMMENT distribute, embed, sublicense, and/or sell copies of the Software,
COMMENT and to permit persons to whom the Software is furnished to do so,
COMMENT subject to the following conditions:
COMMENT 
COMMENT (1) The above copyright notice, this permission notice, and the
COMMENT     disclaimer below shall be included in all copies or substantial
COMMENT     portions of the Software.
COMMENT 
COMMENT (2) If the design of any glyphs in the fonts that are contained in the
COMMENT     Software or generated during the installation process is modified
COMMENT     or if additional glyphs are added to the fonts, the fonts
COMMENT     must be renamed. The new names may not contain the word "UW",
COMMENT     irrespective of capitalisation; the new names may contain the word
COMMENT     "ttyp0", irrespective of capitalisation, only if preceded by a
COMMENT     foundry name different from "UW".
COMMENT 
COMMENT THE SOFTWARE IS PROVIDED "AS IS", WITHOUT WARRANTY OF ANY KIND, EXPRESS
COMMENT OR IMPLIED, INCLUDING BUT NOT LIMITED TO THE WARRANTIES OF
COMMENT MERCHANTABILITY, FITNESS FOR A PARTICULAR PURPOSE AND NONINFRINGEMENT.
COMMENT IN NO EVENT SHALL THE AUTHORS OR COPYRIGHT HOLDERS BE LIABLE FOR ANY
COMMENT CLAIM, DAMAGES OR OTHER LIABILITY, WHETHER IN AN ACTION OF CONTRACT,
COMMENT TORT OR OTHERWISE, ARISING FROM, OUT OF OR IN CONNECTION WITH THE
COMMENT SOFTWARE OR THE USE OR OTHER DEALINGS IN THE SOFTWARE.
COMMENT 
FONT -UW-Ttyp0-Medium-R-Normal--18-170-75-75-C-90-KOI8-R
SIZE 18 75 75
FONTBOUNDINGBOX 9 18 0 -4
STARTPROPERTIES 19
FONTNAME_REGISTRY ""
FOUNDRY "UW"
FAMILY_NAME "Ttyp0"
WEIGHT_NAME "Medium"

STARTCHAR DDefaultChar
ENCODING 0
SWIDTH 1080 0
DWIDTH 9 0
BBX 9 18 0 -4
BITMAP
0000
0000
0000
5a00
4200
0000
4200
4200
0000
4200
4200
0000
4200
5a00
0000
0000
0000
0000
ENDCHAR
STARTCHAR DDiamondB
ENCODING 1
SWIDTH 1080 0
DWIDTH 9 0
BBX 9 18 0 -4
BITMAP
0000
0000
0000
0000
0000
0000
0800
1c00
3e00
7f00
7f00
3e00
1c00
0800
0000
0000
0000
0000
ENDCHAR
STARTCHAR GGrey
ENCODING 2
SWIDTH 1080 0
DWIDTH 9 0
BBX 9 18 0 -4
BITMAP
5500
aa80
5500
aa80
5500
aa80
5500
aa80
5500
aa80
5500
aa80
5500
aa80
5500
aa80
5500
aa80
ENDCHAR
STARTCHAR CtlHT
ENCODING 3
SWIDTH 1080 0
DWIDTH 9 0
BBX 9 18 0 -4
BITMAP
0000
0000
0000
4800
4800
7800
4800
4800
0000
3e00
0800
0800
0800
0800
0000
0000
0000
0000
ENDCHAR
STARTCHAR CtlFF
ENCODING 4
SWIDTH 1080 0
DWIDTH 9 0
BBX 9 18 0 -4
BITMAP
0000
0000
0000
7800
4000
7000
4000
4000
0000
1e00
1000
1c00
1000
1000
0000
0000
0000
0000
ENDCHAR
STARTCHAR CtlCR
ENCODING 5
SWIDTH 1080 0
DWIDTH 9 0
BBX 9 18 0 -4
BITMAP
0000
0000
0000
3000
4800
4000
4800
3000
0000
1c00
1200
1c00
1200
1200
0000
0000
0000
0000
ENDCHAR
STARTCHAR CtlLF
ENCODING 6
SWIDTH 1080 0
DWIDTH 9 0
BBX 9 18 0 -4
BITMAP
0000
0000
0000
4000
4000
4000
4000
7800
0000
1e00
1000
1c00
1000
1000
0000
0000
0000
0000
ENDCHAR
STARTCHAR SDegree
ENCODING 7
SWIDTH 1080 0
DWIDTH 9 0
BBX 9 18 0 -4
BITMAP
0000
0000
0000
1800
2400
2400
1800
0000
0000
0000
0000
0000
0000
0000
0000
0000
0000
0000
ENDCHAR
STARTCHAR MPlusMinus
ENCODING 8
SWIDTH 1080 0
DWIDTH 9 0
BBX 9 18 0 -4
BITMAP
0000
0000
0000
0000
0000
0800
0800
0800
7f00
0800
0800
0800
0000
7f00
0000
0000
0000
0000
ENDCHAR
STARTCHAR CtlNL
ENCODING 9
SWIDTH 1080 0
DWIDTH 9 0
BBX 9 18 0 -4
BITMAP
0000
0000
0000
4400
6400
5400
4c00
4400
0000
1000
1000
1000
1000
1e00
0000
0000
0000
0000
ENDCHAR
STARTCHAR CtlVT
ENCODING 10
SWIDTH 1080 0
DWIDTH 9 0
BBX 9 18 0 -4
BITMAP
0000
0000
0000
4400
4400
2800
2800
1000
0000
3e00
0800
0800
0800
0800
0000
0000
0000
0000
ENDCHAR
STARTCHAR GLineNW
ENCODING 11
SWIDTH 1080 0
DWIDTH 9 0
BBX 9 18 0 -4
BITMAP
0800
0800
0800
0800
0800
0800
0800
0800
0800
f800
0000
0000
0000
0000
0000
0000
0000
0000
ENDCHAR
STARTCHAR GLineSW
ENCODING 12
SWIDTH 1080 0
DWIDTH 9 0
BBX 9 18 0 -4
BITMAP
0000
0000
0000
0000
0000
0000
0000
0000
0000
f800
0800
0800
0800
0800
0800
0800
0800
0800
ENDCHAR
STARTCHAR GLineSE
ENCODING 13
SWIDTH 1080 0
DWIDTH 9 0
BBX 9 18 0 -4
BITMAP
0000
0000
0000
0000
0000
0000
0000
0000
0000
0f80
0800
0800
0800
0800
0800
0800
0800
0800
ENDCHAR
STARTCHAR GLineNE
ENCODING 14
SWIDTH 1080 0
DWIDTH 9 0
BBX 9 18 0 -4
BITMAP
0800
0800
0800
0800
0800
0800
0800
0800
0800
0f80
0000
0000
0000
0000
0000
0000
0000
0000
ENDCHAR
STARTCHAR GLineNSWE
ENCODING 15
SWIDTH 1080 0
DWIDTH 9 0
BBX 9 18 0 -4
BITMAP
0800
0800
0800
0800
0800
0800
0800
0800
0800
ff80
0800
0800
0800
0800
0800
0800
0800
0800
ENDCHAR
STARTCHAR GLineWEHhigh
ENCODING 16
SWIDTH 1080 0
DWIDTH 9 0
BBX 9 18 0 -4
BITMAP
0000
ff80
0000
0000
0000
0000
0000
0000
0000
0000
0000
0000
0000
0000
0000
0000
0000
0000
ENDCHAR
STARTCHAR GLineWEHigh
ENCODING 17
SWIDTH 1080 0
DWIDTH 9 0
BBX 9 18 0 -4
BITMAP
0000
0000
0000
0000
0000
ff80
0000
0000
0000
0000
0000
0000
0000
0000
0000
0000
0000
0000
ENDCHAR
STARTCHAR GLineWE
ENCODING 18
SWIDTH 1080 0
DWIDTH 9 0
BBX 9 18 0 -4
BITMAP
0000
0000
0000
0000
0000
0000
0000
0000
0000
ff80
0000
0000
0000
0000
0000
0000
0000
0000
ENDCHAR
STARTCHAR GLineWELow
ENCODING 19
SWIDTH 1080 0
DWIDTH 9 0
BBX 9 18 0 -4
BITMAP
0000
0000
0000
0000
0000
0000
0000
0000
0000
0000
0000
0000
ff80
0000
0000
0000
0000
0000
ENDCHAR
STARTCHAR GLineWELlow
ENCODING 20
SWIDTH 1080 0
DWIDTH 9 0
BBX 9 18 0 -4
BITMAP
0000
0000
0000
0000
0000
0000
0000
0000
0000
0000
0000
0000
0000
0000
0000
ff80
0000
0000
ENDCHAR
STARTCHAR GLineNSE
ENCODING 21
SWIDTH 1080 0
DWIDTH 9 0
BBX 9 18 0 -4
BITMAP
0800
0800
0800
0800
0800
0800
0800
0800
0800
0f80
0800
0800
0800
0800
0800
0800
0800
0800
ENDCHAR
STARTCHAR GLineNSW
ENCODING 22
SWIDTH 1080 0
DWIDTH 9 0
BBX 9 18 0 -4
BITMAP
0800
0800
0800
0800
0800
0800
0800
0800
0800
f800
0800
0800
0800
0800
0800
0800
0800
0800
ENDCHAR
STARTCHAR GLineNWE
ENCODING 23
SWIDTH 1080 0
DWIDTH 9 0
BBX 9 18 0 -4
BITMAP
0800
0800
0800
0800
0800
0800
0800
0800
0800
ff80
0000
0000
0000
0000
0000
0000
0000
0000
ENDCHAR
STARTCHAR GLineSWE
ENCODING 24
SWIDTH 1080 0
DWIDTH 9 0
BBX 9 18 0 -4
BITMAP
0000
0000
0000
0000
0000
0000
0000
0000
0000
ff80
0800
0800
0800
0800
0800
0800
0800
0800
ENDCHAR
STARTCHAR GLineNS
ENCODING 25
SWIDTH 1080 0
DWIDTH 9 0
BBX 9 18 0 -4
BITMAP
0800
0800
0800
0800
0800
0800
0800
0800
0800
0800
0800
0800
0800
0800
0800
0800
0800
0800
ENDCHAR
STARTCHAR MLessEq
ENCODING 26
SWIDTH 1080 0
DWIDTH 9 0
BBX 9 18 0 -4
BITMAP
0000
0000
0000
0000
0200
0c00
3000
4000
4000
3000
0c00
0200
0000
7e00
0000
0000
0000
0000
ENDCHAR
STARTCHAR MGreaterEq
ENCODING 27
SWIDTH 1080 0
DWIDTH 9 0
BBX 9 18 0 -4
BITMAP
0000
0000
0000
0000
4000
3000
0c00
0200
0200
0c00
3000
4000
0000
7e00
0000
0000
0000
0000
ENDCHAR
STARTCHAR GkSmlPi
ENCODING 28
SWIDTH 1080 0
DWIDTH 9 0
BBX 9 18 0 -4
BITMAP
0000
0000
0000
0000
0000
0000
7f00
2200
2200
2200
2200
2200
2200
2200
0000
0000
0000
0000
ENDCHAR
STARTCHAR MEqualNot
ENCODING 29
SWIDTH 1080 0
DWIDTH 9 0
BBX 9 18 0 -4
BITMAP
0000
0000
0000
0000
0000
0000
0200
0400
7e00
0800
1000
7e00
2000
4000
0000
0000
0000
0000
ENDCHAR
STARTCHAR CurrPound
ENCODING 30
SWIDTH 1080 0
DWIDTH 9 0
BBX 9 18 0 -4
BITMAP
0000
0000
0000
1c00
2200
2200
2000
2000
7800
2000
2000
2000
4200
7e00
0000
0000
0000
0000
ENDCHAR
STARTCHAR PMiddleDot
ENCODING 31
SWIDTH 1080 0
DWIDTH 9 0
BBX 9 18 0 -4
BITMAP
0000
0000
0000
0000
0000
0000
0000
0000
1800
1800
0000
0000
0000
0000
0000
0000
0000
0000
ENDCHAR
STARTCHAR Space
ENCODING 32
SWIDTH 1080 0
DWIDTH 9 0
BBX 9 18 0 -4
BITMAP
0000
0000
0000
0000
0000
0000
0000
0000
0000
0000
0000
0000
0000
0000
0000
0000
0000
0000
ENDCHAR
STARTCHAR PExclam
ENCODING 33
SWIDTH 1080 0
DWIDTH 9 0
BBX 9 18 0 -4
BITMAP
0000
0000
0000
0800
0800
0800
0800
0800
0800
0800
0800
0000
0800
0800
0000
0000
0000
0000
ENDCHAR
STARTCHAR PQuote2Ascii
ENCODING 34
SWIDTH 1080 0
DWIDTH 9 0
BBX 9 18 0 -4
BITMAP
0000
0000
0000
2400
2400
2400
0000
0000
0000
0000
0000
0000
0000
0000
0000
0000
0000
0000
ENDCHAR
STARTCHAR SNumberSign
ENCODING 35
SWIDTH 1080 0
DWIDTH 9 0
BBX 9 18 0 -4
BITMAP
0000
0000
0000
0000
0000
2400
2400
7e00
2400
2400
7e00
2400
2400
0000
0000
0000
0000
0000
ENDCHAR
STARTCHAR CurrDollar
ENCODING 36
SWIDTH 1080 0
DWIDTH 9 0
BBX 9 18 0 -4
BITMAP
0000
0000
0800
0800
1c00
2a00
2800
2800
1800
0c00
0a00
0a00
2a00
1c00
0800
0800
0000
0000
ENDCHAR
STARTCHAR SPercent
ENCODING 37
SWIDTH 1080 0
DWIDTH 9 0
BBX 9 18 0 -4
BITMAP
0000
0000
0000
2100
5100
5200
5400
2400
0800
1200
1500
2500
4500
4200
0000
0000
0000
0000
ENDCHAR
STARTCHAR SAmpersand
ENCODING 38
SWIDTH 1080 0
DWIDTH 9 0
BBX 9 18 0 -4
BITMAP
0000
0000
0000
1800
2400
2400
2400
1800
1000
2900
4a00
4400
4600
3900
0000
0000
0000
0000
ENDCHAR
STARTCHAR PApostropheAscii
ENCODING 39
SWIDTH 1080 0
DWIDTH 9 0
BBX 9 18 0 -4
BITMAP
0000
0000
0800
0800
0800
0800
0000
0000
0000
0000
0000
0000
0000
0000
0000
0000
0000
0000
ENDCHAR
STARTCHAR PParenL
ENCODING 40
SWIDTH 1080 0
DWIDTH 9 0
BBX 9 18 0 -4
BITMAP
0000
0000
0400
0800
1000
1000
2000
2000
2000
2000
2000
1000
1000
0800
0400
0000
0000
0000
ENDCHAR
STARTCHAR PParenR
ENCODING 41
SWIDTH 1080 0
DWIDTH 9 0
BBX 9 18 0 -4
BITMAP
0000
0000
2000
1000
0800
0800
0400
0400
0400
0400
0400
0800
0800
1000
2000
0000
0000
0000
ENDCHAR
STARTCHAR SAsterisk
ENCODING 42
SWIDTH 1080 0
DWIDTH 9 0
BBX 9 18 0 -4
BITMAP
0000
0000
0000
0000
0000
0000
0000
2400
1800
7e00
1800
2400
0000
0000
0000
0000
0000
0000
ENDCHAR
STARTCHAR MPlus
ENCODING 43
SWIDTH 1080 0
DWIDTH 9 0
BBX 9 18 0 -4
BITMAP
0000
0000
0000
0000
0000
0000
0800
0800
0800
7f00
0800
0800
0800
0000
0000
0000
0000
0000
ENDCHAR
STARTCHAR PComma
ENCODING 44
SWIDTH 1080 0
DWIDTH 9 0
BBX 9 18 0 -4
BITMAP
0000
0000
0000
0000
0000
0000
0000
0000
0000
0000
0000
0000
1800
1800
1000
2000
0000
0000
ENDCHAR
STARTCHAR PHyphenMinus
ENCODING 45
SWIDTH 1080 0
DWIDTH 9 0
BBX 9 18 0 -4
BITMAP
0000
0000
0000
0000
0000
0000
0000
0000
0000
7f00
0000
0000
0000
0000
0000
0000
0000
0000
ENDCHAR
STARTCHAR PFullStop
ENCODING 46
SWIDTH 1080 0
DWIDTH 9 0
BBX 9 18 0 -4
BITMAP
0000
0000
0000
0000
0000
0000
0000
0000
0000
0000
0000
0000
1800
1800
0000
0000
0000
0000
ENDCHAR
STARTCHAR PSolidus
ENCODING 47
SWIDTH 1080 0
DWIDTH 9 0
BBX 9 18 0 -4
BITMAP
0000
0000
0100
0100
0200
0200
0400
0400
0800
0800
1000
1000
2000
2000
4000
0000
0000
0000
ENDCHAR
STARTCHAR Digit0
ENCODING 48
SWIDTH 1080 0
DWIDTH 9 0
BBX 9 18 0 -4
BITMAP
0000
0000
0000
1800
2400
4200
4600
4a00
5200
6200
4200
4200
2400
1800
0000
0000
0000
0000
ENDCHAR
STARTCHAR Digit1
ENCODING 49
SWIDTH 1080 0
DWIDTH 9 0
BBX 9 18 0 -4
BITMAP
0000
0000
0000
0800
1800
2800
4800
0800
0800
0800
0800
0800
0800
0800
0000
0000
0000
0000
ENDCHAR
STARTCHAR Digit2
ENCODING 50
SWIDTH 1080 0
DWIDTH 9 0
BBX 9 18 0 -4
BITMAP
0000
0000
0000
3c00
4200
4200
0200
0200
0400
0800
1000
2000
4000
7e00
0000
0000
0000
0000
ENDCHAR
STARTCHAR Digit3
ENCODING 51
SWIDTH 1080 0
DWIDTH 9 0
BBX 9 18 0 -4
BITMAP
0000
0000
0000
3c00
4200
0200
0200
0400
1c00
0200
0200
0200
4200
3c00
0000
0000
0000
0000
ENDCHAR
STARTCHAR Digit4
ENCODING 52
SWIDTH 1080 0
DWIDTH 9 0
BBX 9 18 0 -4
BITMAP
0000
0000
0000
0400
0c00
0c00
1400
2400
2400
4400
7e00
0400
0400
0400
0000
0000
0000
0000
ENDCHAR
STARTCHAR Digit5
ENCODING 53
SWIDTH 1080 0
DWIDTH 9 0
BBX 9 18 0 -4
BITMAP
0000
0000
0000
7c00
4000
4000
5800
6400
4200
0200
0200
0200
4400
3800
0000
0000
0000
0000
ENDCHAR
STARTCHAR Digit6
ENCODING 54
SWIDTH 1080 0
DWIDTH 9 0
BBX 9 18 0 -4
BITMAP
0000
0000
0000
1c00
2000
4000
4000
5c00
6200
4200
4200
4200
4200
3c00
0000
0000
0000
0000
ENDCHAR
STARTCHAR Digit7
ENCODING 55
SWIDTH 1080 0
DWIDTH 9 0
BBX 9 18 0 -4
BITMAP
0000
0000
0000
7e00
4200
0200
0400
0400
0800
0800
0800
1000
1000
1000
0000
0000
0000
0000
ENDCHAR
STARTCHAR Digit8
ENCODING 56
SWIDTH 1080 0
DWIDTH 9 0
BBX 9 18 0 -4
BITMAP
0000
0000
0000
3c00
4200
4200
4200
2400
3c00
4200
4200
4200
4200
3c00
0000
0000
0000
0000
ENDCHAR
STARTCHAR Digit9
ENCODING 57
SWIDTH 1080 0
DWIDTH 9 0
BBX 9 18 0 -4
BITMAP
0000
0000
0000
3c00
4200
4200
4200
4200
4600
3a00
0200
0200
0400
3800
0000
0000
0000
0000
ENDCHAR
STARTCHAR PColon
ENCODING 58
SWIDTH 1080 0
DWIDTH 9 0
BBX 9 18 0 -4
BITMAP
0000
0000
0000
0000
0000
0000
0000
0000
1800
1800
0000
0000
1800
1800
0000
0000
0000
0000
ENDCHAR
STARTCHAR PSemicolon
ENCODING 59
SWIDTH 1080 0
DWIDTH 9 0
BBX 9 18 0 -4
BITMAP
0000
0000
0000
0000
0000
0000
0000
0000
1800
1800
0000
0000
1800
1800
1000
2000
0000
0000
ENDCHAR
STARTCHAR MLess
ENCODING 60
SWIDTH 1080 0
DWIDTH 9 0
BBX 9 18 0 -4
BITMAP
0000
0000
0000
0000
0200
0400
0800
1000
2000
2000
1000
0800
0400
0200
0000
0000
0000
0000
ENDCHAR
STARTCHAR MEqual
ENCODING 61
SWIDTH 1080 0
DWIDTH 9 0
BBX 9 18 0 -4
BITMAP
0000
0000
0000
0000
0000
0000
0000
0000
7e00
0000
0000
7e00
0000
0000
0000
0000
0000
0000
ENDCHAR
STARTCHAR MGreater
ENCODING 62
SWIDTH 1080 0
DWIDTH 9 0
BBX 9 18 0 -4
BITMAP
0000
0000
0000
0000
2000
1000
0800
0400
0200
0200
0400
0800
1000
2000
0000
0000
0000
0000
ENDCHAR
STARTCHAR PQuestion
ENCODING 63
SWIDTH 1080 0
DWIDTH 9 0
BBX 9 18 0 -4
BITMAP
0000
0000
0000
3e00
4100
4100
0100
0200
0400
0800
0800
0000
0800
0800
0000
0000
0000
0000
ENDCHAR
STARTCHAR SCommercialAt
ENCODING 64
SWIDTH 1080 0
DWIDTH 9 0
BBX 9 18 0 -4
BITMAP
0000
0000
0000
0000
1c00
2200
4900
5500
5500
5500
5500
4a00
2000
1f00
0000
0000
0000
0000
ENDCHAR
STARTCHAR LtCapA
ENCODING 65
SWIDTH 1080 0
DWIDTH 9 0
BBX 9 18 0 -4
BITMAP
0000
0000
0000
0800
0800
0800
1400
1400
2200
2200
3e00
4100
4100
4100
0000
0000
0000
0000
ENDCHAR
STARTCHAR LtCapB
ENCODING 66
SWIDTH 1080 0
DWIDTH 9 0
BBX 9 18 0 -4
BITMAP
0000
0000
0000
7c00
4200
4200
4200
4400
7c00
4200
4200
4200
4200
7c00
0000
0000
0000
0000
ENDCHAR
STARTCHAR LtCapC
ENCODING 67
SWIDTH 1080 0
DWIDTH 9 0
BBX 9 18 0 -4
BITMAP
0000
0000
0000
1c00
2200
4000
4000
4000
4000
4000
4000
4000
2200
1c00
0000
0000
0000
0000
ENDCHAR
STARTCHAR LtCapD
ENCODING 68
SWIDTH 1080 0
DWIDTH 9 0
BBX 9 18 0 -4
BITMAP
0000
0000
0000
7800
4400
4200
4200
4200
4200
4200
4200
4200
4400
7800
0000
0000
0000
0000
ENDCHAR
STARTCHAR LtCapE
ENCODING 69
SWIDTH 1080 0
DWIDTH 9 0
BBX 9 18 0 -4
BITMAP
0000
0000
0000
7e00
4000
4000
4000
4000
7800
4000
4000
4000
4000
7e00
0000
0000
0000
0000
ENDCHAR
STARTCHAR LtCapF
ENCODING 70
SWIDTH 1080 0
DWIDTH 9 0
BBX 9 18 0 -4
BITMAP
0000
0000
0000
3f00
2000
2000
2000
2000
3c00
2000
2000
2000
2000
2000
0000
0000
0000
0000
ENDCHAR
STARTCHAR LtCapG
ENCODING 71
SWIDTH 1080 0
DWIDTH 9 0
BBX 9 18 0 -4
BITMAP
0000
0000
0000
1c00
2200
4000
4000
4000
4e00
4200
4200
4200
2200
1e00
0000
0000
0000
0000
ENDCHAR
STARTCHAR LtCapH
ENCODING 72
SWIDTH 1080 0
DWIDTH 9 0
BBX 9 18 0 -4
BITMAP
0000
0000
0000
4200
4200
4200
4200
4200
7e00
4200
4200
4200
4200
4200
0000
0000
0000
0000
ENDCHAR
STARTCHAR LtCapI
ENCODING 73
SWIDTH 1080 0
DWIDTH 9 0
BBX 9 18 0 -4
BITMAP
0000
0000
0000
3e00
0800
0800
0800
0800
0800
0800
0800
0800
0800
3e00
0000
0000
0000
0000
ENDCHAR
STARTCHAR LtCapJ
ENCODING 74
SWIDTH 1080 0
DWIDTH 9 0
BBX 9 18 0 -4
BITMAP
0000
0000
0000
0e00
0400
0400
0400
0400
0400
0400
0400
4400
4400
3800
0000
0000
0000
0000
ENDCHAR
STARTCHAR LtCapK
ENCODING 75
SWIDTH 1080 0
DWIDTH 9 0
BBX 9 18 0 -4
BITMAP
0000
0000
0000
4200
4200
4400
4400
4800
5000
6800
4400
4400
4200
4200
0000
0000
0000
0000
ENDCHAR
STARTCHAR LtCapL
ENCODING 76
SWIDTH 1080 0
DWIDTH 9 0
BBX 9 18 0 -4
BITMAP
0000
0000
0000
4000
4000
4000
4000
4000
4000
4000
4000
4000
4000
7e00
0000
0000
0000
0000
ENDCHAR
STARTCHAR LtCapM
ENCODING 77
SWIDTH 1080 0
DWIDTH 9 0
BBX 9 18 0 -4
BITMAP
0000
0000
0000
4100
4100
6300
6300
5500
5500
4900
4900
4100
4100
4100
0000
0000
0000
0000
ENDCHAR
STARTCHAR LtCapN
ENCODING 78
SWIDTH 1080 0
DWIDTH 9 0
BBX 9 18 0 -4
BITMAP
0000
0000
0000
4200
4200
6200
6200
5200
4a00
4a00
4600
4600
4200
4200
0000
0000
0000
0000
ENDCHAR
STARTCHAR LtCapO
ENCODING 79
SWIDTH 1080 0
DWIDTH 9 0
BBX 9 18 0 -4
BITMAP
0000
0000
0000
3c00
4200
4200
4200
4200
4200
4200
4200
4200
4200
3c00
0000
0000
0000
0000
ENDCHAR
STARTCHAR LtCapP
ENCODING 80
SWIDTH 1080 0
DWIDTH 9 0
BBX 9 18 0 -4
BITMAP
0000
0000
0000
7c00
4200
4200
4200
4200
7c00
4000
4000
4000
4000
4000
0000
0000
0000
0000
ENDCHAR
STARTCHAR LtCapQ
ENCODING 81
SWIDTH 1080 0
DWIDTH 9 0
BBX 9 18 0 -4
BITMAP
0000
0000
0000
3c00
4200
4200
4200
4200
4200
4200
4200
5200
6a00
3c00
0400
0300
0000
0000
ENDCHAR
STARTCHAR LtCapR
ENCODING 82
SWIDTH 1080 0
DWIDTH 9 0
BBX 9 18 0 -4
BITMAP
0000
0000
0000
7c00
4200
4200
4200
4200
7c00
4800
4400
4400
4200
4200
0000
0000
0000
0000
ENDCHAR
STARTCHAR LtCapS
ENCODING 83
SWIDTH 1080 0
DWIDTH 9 0
BBX 9 18 0 -4
BITMAP
0000
0000
0000
3c00
4200
4000
4000
2000
1800
0400
0200
0200
4200
3c00
0000
0000
0000
0000
ENDCHAR
STARTCHAR LtCapT
ENCODING 84
SWIDTH 1080 0
DWIDTH 9 0
BBX 9 18 0 -4
BITMAP
0000
0000
0000
7f00
0800
0800
0800
0800
0800
0800
0800
0800
0800
0800
0000
0000
0000
0000
ENDCHAR
STARTCHAR LtCapU
ENCODING 85
SWIDTH 1080 0
DWIDTH 9 0
BBX 9 18 0 -4
BITMAP
0000
0000
0000
4200
4200
4200
4200
4200
4200
4200
4200
4200
4200
3c00
0000
0000
0000
0000
ENDCHAR
STARTCHAR LtCapV
ENCODING 86
SWIDTH 1080 0
DWIDTH 9 0
BBX 9 18 0 -4
BITMAP
0000
0000
0000
4100
4100
4100
2200
2200
2200
1400
1400
0800
0800
0800
0000
0000
0000
0000
ENDCHAR
STARTCHAR LtCapW
ENCODING 87
SWIDTH 1080 0
DWIDTH 9 0
BBX 9 18 0 -4
BITMAP
0000
0000
0000
4100
4100
4100
4900
4900
4900
5500
5500
2200
2200
2200
0000
0000
0000
0000
ENDCHAR
STARTCHAR LtCapX
ENCODING 88
SWIDTH 1080 0
DWIDTH 9 0
BBX 9 18 0 -4
BITMAP
0000
0000
0000
4200
4200
2400
2400
1800
1800
1800
2400
2400
4200
4200
0000
0000
0000
0000
ENDCHAR
STARTCHAR LtCapY
ENCODING 89
SWIDTH 1080 0
DWIDTH 9 0
BBX 9 18 0 -4
BITMAP
0000
0000
0000
4100
4100
2200
2200
1400
1400
0800
0800
0800
0800
0800
0000
0000
0000
0000
ENDCHAR
STARTCHAR LtCapZ
ENCODING 90
SWIDTH 1080 0
DWIDTH 9 0
BBX 9 18 0 -4
BITMAP
0000
0000
0000
7e00
0200
0400
0400
0800
1000
1000
2000
4000
4000
7e00
0000
0000
0000
0000
ENDCHAR
STARTCHAR PSquareBrackL
ENCODING 91
SWIDTH 1080 0
DWIDTH 9 0
BBX 9 18 0 -4
BITMAP
0000
0000
3c00
2000
2000
2000
2000
2000
2000
2000
2000
2000
2000
2000
3c00
0000
0000
0000
ENDCHAR
STARTCHAR PRevSolidus
ENCODING 92
SWIDTH 1080 0
DWIDTH 9 0
BBX 9 18 0 -4
BITMAP
0000
0000
4000
2000
2000
1000
1000
0800
0800
0400
0400
0200
0200
0100
0100
0000
0000
0000
ENDCHAR
STARTCHAR PSquareBrackR
ENCODING 93
SWIDTH 1080 0
DWIDTH 9 0
BBX 9 18 0 -4
BITMAP
0000
0000
3c00
0400
0400
0400
0400
0400
0400
0400
0400
0400
0400
0400
3c00
0000
0000
0000
ENDCHAR
STARTCHAR AccCircumAscii
ENCODING 94
SWIDTH 1080 0
DWIDTH 9 0
BBX 9 18 0 -4
BITMAP
0000
0000
0800
1400
2200
4100
0000
0000
0000
0000
0000
0000
0000
0000
0000
0000
0000
0000
ENDCHAR
STARTCHAR OLowline
ENCODING 95
SWIDTH 1080 0
DWIDTH 9 0
BBX 9 18 0 -4
BITMAP
0000
0000
0000
0000
0000
0000
0000
0000
0000
0000
0000
0000
0000
7f00
0000
0000
0000
0000
ENDCHAR
STARTCHAR AccGraveAscii
ENCODING 96
SWIDTH 1080 0
DWIDTH 9 0
BBX 9 18 0 -4
BITMAP
0000
0000
1000
1800
0800
0400
0000
0000
0000
0000
0000
0000
0000
0000
0000
0000
0000
0000
ENDCHAR
STARTCHAR LtSmlA
ENCODING 97
SWIDTH 1080 0
DWIDTH 9 0
BBX 9 18 0 -4
BITMAP
0000
0000
0000
0000
0000
0000
3c00
0200
0200
3e00
4200
4200
4600
3a00
0000
0000
0000
0000
ENDCHAR
STARTCHAR LtSmlB
ENCODING 98
SWIDTH 1080 0
DWIDTH 9 0
BBX 9 18 0 -4
BITMAP
0000
0000
0000
4000
4000
4000
5c00
6200
4200
4200
4200
4200
6200
5c00
0000
0000
0000
0000
ENDCHAR
STARTCHAR LtSmlC
ENCODING 99
SWIDTH 1080 0
DWIDTH 9 0
BBX 9 18 0 -4
BITMAP
0000
0000
0000
0000
0000
0000
1c00
2200
4000
4000
4000
4000
2200
1c00
0000
0000
0000
0000
ENDCHAR
STARTCHAR LtSmlD
ENCODING 100
SWIDTH 1080 0
DWIDTH 9 0
BBX 9 18 0 -4
BITMAP
0000
0000
0000
0200
0200
0200
3a00
4600
4200
4200
4200
4200
4600
3a00
0000
0000
0000
0000
ENDCHAR
STARTCHAR LtSmlE
ENCODING 101
SWIDTH 1080 0
DWIDTH 9 0
BBX 9 18 0 -4
BITMAP
0000
0000
0000
0000
0000
0000
1c00
2200
4200
7e00
4000
4000
2200
1c00
0000
0000
0000
0000
ENDCHAR
STARTCHAR LtSmlF
ENCODING 102
SWIDTH 1080 0
DWIDTH 9 0
BBX 9 18 0 -4
BITMAP
0000
0000
0000
0e00
1000
1000
1000
7e00
1000
1000
1000
1000
1000
1000
0000
0000
0000
0000
ENDCHAR
STARTCHAR LtSmlG
ENCODING 103
SWIDTH 1080 0
DWIDTH 9 0
BBX 9 18 0 -4
BITMAP
0000
0000
0000
0000
0000
0000
3a00
4400
4400
4400
4400
3800
4000
3c00
4200
4200
3c00
0000
ENDCHAR
STARTCHAR LtSmlH
ENCODING 104
SWIDTH 1080 0
DWIDTH 9 0
BBX 9 18 0 -4
BITMAP
0000
0000
0000
4000
4000
4000
5c00
6200
4200
4200
4200
4200
4200
4200
0000
0000
0000
0000
ENDCHAR
STARTCHAR LtSmlI
ENCODING 105
SWIDTH 1080 0
DWIDTH 9 0
BBX 9 18 0 -4
BITMAP
0000
0000
0800
0800
0000
0000
1800
0800
0800
0800
0800
0800
0800
3e00
0000
0000
0000
0000
ENDCHAR
STARTCHAR LtSmlJ
ENCODING 106
SWIDTH 1080 0
DWIDTH 9 0
BBX 9 18 0 -4
BITMAP
0000
0000
0400
0400
0000
0000
1c00
0400
0400
0400
0400
0400
0400
0400
4400
4400
3800
0000
ENDCHAR
STARTCHAR LtSmlK
ENCODING 107
SWIDTH 1080 0
DWIDTH 9 0
BBX 9 18 0 -4
BITMAP
0000
0000
0000
4000
4000
4000
4200
4400
4800
5000
7000
4800
4400
4200
0000
0000
0000
0000
ENDCHAR
STARTCHAR LtSmlL
ENCODING 108
SWIDTH 1080 0
DWIDTH 9 0
BBX 9 18 0 -4
BITMAP
0000
0000
0000
1800
0800
0800
0800
0800
0800
0800
0800
0800
0800
3e00
0000
0000
0000
0000
ENDCHAR
STARTCHAR LtSmlM
ENCODING 109
SWIDTH 1080 0
DWIDTH 9 0
BBX 9 18 0 -4
BITMAP
0000
0000
0000
0000
0000
0000
7600
4900
4900
4900
4900
4900
4900
4900
0000
0000
0000
0000
ENDCHAR
STARTCHAR LtSmlN
ENCODING 110
SWIDTH 1080 0
DWIDTH 9 0
BBX 9 18 0 -4
BITMAP
0000
0000
0000
0000
0000
0000
5c00
6200
4200
4200
4200
4200
4200
4200
0000
0000
0000
0000
ENDCHAR
STARTCHAR LtSmlO
ENCODING 111
SWIDTH 1080 0
DWIDTH 9 0
BBX 9 18 0 -4
BITMAP
0000
0000
0000
0000
0000
0000
3c00
4200
4200
4200
4200
4200
4200
3c00
0000
0000
0000
0000
ENDCHAR
STARTCHAR LtSmlP
ENCODING 112
SWIDTH 1080 0
DWIDTH 9 0
BBX 9 18 0 -4
BITMAP
0000
0000
0000
0000
0000
0000
5c00
6200
4200
4200
4200
4200
6200
5c00
4000
4000
4000
0000
ENDCHAR
STARTCHAR LtSmlQ
ENCODING 113
SWIDTH 1080 0
DWIDTH 9 0
BBX 9 18 0 -4
BITMAP
0000
0000
0000
0000
0000
0000
3a00
4600
4200
4200
4200
4200
4600
3a00
0200
0200
0200
0000
ENDCHAR
STARTCHAR LtSmlR
ENCODING 114
SWIDTH 1080 0
DWIDTH 9 0
BBX 9 18 0 -4
BITMAP
0000
0000
0000
0000
0000
0000
6e00
3200
2000
2000
2000
2000
2000
2000
0000
0000
0000
0000
ENDCHAR
STARTCHAR LtSmlS
ENCODING 115
SWIDTH 1080 0
DWIDTH 9 0
BBX 9 18 0 -4
BITMAP
0000
0000
0000
0000
0000
0000
3c00
4200
4000
3000
0c00
0200
4200
3c00
0000
0000
0000
0000
ENDCHAR
STARTCHAR LtSmlT
ENCODING 116
SWIDTH 1080 0
DWIDTH 9 0
BBX 9 18 0 -4
BITMAP
0000
0000
0000
0000
1000
1000
7c00
1000
1000
1000
1000
1000
1200
0c00
0000
0000
0000
0000
ENDCHAR
STARTCHAR LtSmlU
ENCODING 117
SWIDTH 1080 0
DWIDTH 9 0
BBX 9 18 0 -4
BITMAP
0000
0000
0000
0000
0000
0000
4200
4200
4200
4200
4200
4200
4600
3a00
0000
0000
0000
0000
ENDCHAR
STARTCHAR LtSmlV
ENCODING 118
SWIDTH 1080 0
DWIDTH 9 0
BBX 9 18 0 -4
BITMAP
0000
0000
0000
0000
0000
0000
4100
4100
2200
2200
1400
1400
0800
0800
0000
0000
0000
0000
ENDCHAR
STARTCHAR LtSmlW
ENCODING 119
SWIDTH 1080 0
DWIDTH 9 0
BBX 9 18 0 -4
BITMAP
0000
0000
0000
0000
0000
0000
4100
4100
4900
4900
4900
3600
2200
2200
0000
0000
0000
0000
ENDCHAR
STARTCHAR LtSmlX
ENCODING 120
SWIDTH 1080 0
DWIDTH 9 0
BBX 9 18 0 -4
BITMAP
0000
0000
0000
0000
0000
0000
4200
4200
2400
1800
1800
2400
4200
4200
0000
0000
0000
0000
ENDCHAR
STARTCHAR LtSmlY
ENCODING 121
SWIDTH 1080 0
DWIDTH 9 0
BBX 9 18 0 -4
BITMAP
0000
0000
0000
0000
0000
0000
4200
4200
4200
2400
2400
1400
1800
0800
1000
5000
2000
0000
ENDCHAR
STARTCHAR LtSmlZ
ENCODING 122
SWIDTH 1080 0
DWIDTH 9 0
BBX 9 18 0 -4
BITMAP
0000
0000
0000
0000
0000
0000
7e00
0200
0400
0800
1000
2000
4000
7e00
0000
0000
0000
0000
ENDCHAR
STARTCHAR PCurlyBrackL
ENCODING 123
SWIDTH 1080 0
DWIDTH 9 0
BBX 9 18 0 -4
BITMAP
0000
0000
0600
0800
0800
0800
0800
1000
3000
1000
0800
0800
0800
0800
0600
0000
0000
0000
ENDCHAR
STARTCHAR OVertBar
ENCODING 124
SWIDTH 1080 0
DWIDTH 9 0
BBX 9 18 0 -4
BITMAP
0000
0000
0800
0800
0800
0800
0800
0800
0800
0800
0800
0800
0800
0800
0800
0000
0000
0000
ENDCHAR
STARTCHAR PCurlyBrackR
ENCODING 125
SWIDTH 1080 0
DWIDTH 9 0
BBX 9 18 0 -4
BITMAP
0000
0000
3000
0800
0800
0800
0800
0400
0600
0400
0800
0800
0800
0800
3000
0000
0000
0000
ENDCHAR
STARTCHAR AccTildeAscii
ENCODING 126
SWIDTH 1080 0
DWIDTH 9 0
BBX 9 18 0 -4
BITMAP
0000
0000
0000
3200
5a00
4c00
0000
0000
0000
0000
0000
0000
0000
0000
0000
0000
0000
0000
ENDCHAR
STARTCHAR GLineWE
ENCODING 128
SWIDTH 1080 0
DWIDTH 9 0
BBX 9 18 0 -4
BITMAP
0000
0000
0000
0000
0000
0000
0000
0000
0000
ff80
0000
0000
0000
0000
0000
0000
0000
0000
ENDCHAR
STARTCHAR GLineNS
ENCODING 129
SWIDTH 1080 0
DWIDTH 9 0
BBX 9 18 0 -4
BITMAP
0800
0800
0800
0800
0800
0800
0800
0800
0800
0800
0800
0800
0800
0800
0800
0800
0800
0800
ENDCHAR
STARTCHAR GLineSE
ENCODING 130
SWIDTH 1080 0
DWIDTH 9 0
BBX 9 18 0 -4
BITMAP
0000
0000
0000
0000
0000
0000
0000
0000
0000
0f80
0800
0800
0800
0800
0800
0800
0800
0800
ENDCHAR
STARTCHAR GLineSW
ENCODING 131
SWIDTH 1080 0
DWIDTH 9 0
BBX 9 18 0 -4
BITMAP
0000
0000
0000
0000
0000
0000
0000
0000
0000
f800
0800
0800
0800
0800
0800
0800
0800
0800
ENDCHAR
STARTCHAR GLineNE
ENCODING 132
SWIDTH 1080 0
DWIDTH 9 0
BBX 9 18 0 -4
BITMAP
0800
0800
0800
0800
0800
0800
0800
0800
0800
0f80
0000
0000
0000
0000
0000
0000
0000
0000
ENDCHAR
STARTCHAR GLineNW
ENCODING 133
SWIDTH 1080 0
DWIDTH 9 0
BBX 9 18 0 -4
BITMAP
0800
0800
0800
0800
0800
0800
0800
0800
0800
f800
0000
0000
0000
0000
0000
0000
0000
0000
ENDCHAR
STARTCHAR GLineNSE
ENCODING 134
SWIDTH 1080 0
DWIDTH 9 0
BBX 9 18 0 -4
BITMAP
0800
0800
0800
0800
0800
0800
0800
0800
0800
0f80
0800
0800
0800
0800
0800
0800
0800
0800
ENDCHAR
STARTCHAR GLineNSW
ENCODING 135
SWIDTH 1080 0
DWIDTH 9 0
BBX 9 18 0 -4
BITMAP
0800
0800
0800
0800
0800
0800
0800
0800
0800
f800
0800
0800
0800
0800
0800
0800
0800
0800
ENDCHAR
STARTCHAR GLineSWE
ENCODING 136
SWIDTH 1080 0
DWIDTH 9 0
BBX 9 18 0 -4
BITMAP
0000
0000
0000
0000
0000
0000
0000
0000
0000
ff80
0800
0800
0800
0800
0800
0800
0800
0800
ENDCHAR
STARTCHAR GLineNWE
ENCODING 137
SWIDTH 1080 0
DWIDTH 9 0
BBX 9 18 0 -4
BITMAP
0800
0800
0800
0800
0800
0800
0800
0800
0800
ff80
0000
0000
0000
0000
0000
0000
0000
0000
ENDCHAR
STARTCHAR GLineNSWE
ENCODING 138
SWIDTH 1080 0
DWIDTH 9 0
BBX 9 18 0 -4
BITMAP
0800
0800
0800
0800
0800
0800
0800
0800
0800
ff80
0800
0800
0800
0800
0800
0800
0800
0800
ENDCHAR
STARTCHAR GBlkHigh12
ENCODING 139
SWIDTH 1080 0
DWIDTH 9 0
BBX 9 18 0 -4
BITMAP
ff80
ff80
ff80
ff80
ff80
ff80
ff80
ff80
ff80
0000
0000
0000
0000
0000
0000
0000
0000
0000
ENDCHAR
STARTCHAR GBlkLow12
ENCODING 140
SWIDTH 1080 0
DWIDTH 9 0
BBX 9 18 0 -4
BITMAP
0000
0000
0000
0000
0000
0000
0000
0000
0000
ff80
ff80
ff80
ff80
ff80
ff80
ff80
ff80
ff80
ENDCHAR
STARTCHAR GBlk
ENCODING 141
SWIDTH 1080 0
DWIDTH 9 0
BBX 9 18 0 -4
BITMAP
ff80
ff80
ff80
ff80
ff80
ff80
ff80
ff80
ff80
ff80
ff80
ff80
ff80
ff80
ff80
ff80
ff80
ff80
ENDCHAR
STARTCHAR GBlkLeft12
ENCODING 142
SWIDTH 1080 0
DWIDTH 9 0
BBX 9 18 0 -4
BITMAP
f000
f000
f000
f000
f000
f000
f000
f000
f000
f000
f000
f000
f000
f000
f000
f000
f000
f000
ENDCHAR
STARTCHAR GBlkRight12
ENCODING 143
SWIDTH 1080 0
DWIDTH 9 0
BBX 9 18 0 -4
BITMAP
0f80
0f80
0f80
0f80
0f80
0f80
0f80
0f80
0f80
0f80
0f80
0f80
0f80
0f80
0f80
0f80
0f80
0f80
ENDCHAR
STARTCHAR GGreyLight
ENCODING 144
SWIDTH 1080 0
DWIDTH 9 0
BBX 9 18 0 -4
BITMAP
4400
8880
2200
1100
4400
8880
2200
1100
4400
8880
2200
1100
4400
8880
2200
1100
4400
8880
ENDCHAR
STARTCHAR GGrey
ENCODING 145
SWIDTH 1080 0
DWIDTH 9 0
BBX 9 18 0 -4
BITMAP
5500
aa80
5500
aa80
5500
aa80
5500
aa80
5500
aa80
5500
aa80
5500
aa80
5500
aa80
5500
aa80
ENDCHAR
STARTCHAR GGreyDark
ENCODING 146
SWIDTH 1080 0
DWIDTH 9 0
BBX 9 18 0 -4
BITMAP
7700
bb80
ee80
dd80
7700
bb80
ee80
dd80
7700
bb80
ee80
dd80
7700
bb80
ee80
dd80
7700
bb80
ENDCHAR
STARTCHAR MIntegralTopH
ENCODING 147
SWIDTH 1080 0
DWIDTH 9 0
BBX 9 18 0 -4
BITMAP
0000
0000
0000
0700
0900
0800
0800
0800
0800
0800
0800
0800
0800
0800
0800
0800
0800
0800
ENDCHAR
STARTCHAR DSquareB
ENCODING 148
SWIDTH 1080 0
DWIDTH 9 0
BBX 9 18 0 -4
BITMAP
0000
0000
0000
0000
0000
0000
7f00
7f00
7f00
7f00
7f00
7f00
7f00
0000
0000
0000
0000
0000
ENDCHAR
STARTCHAR MBullet
ENCODING 149
SWIDTH 1080 0
DWIDTH 9 0
BBX 9 18 0 -4
BITMAP
0000
0000
0000
0000
0000
0000
0000
1c00
3e00
3e00
3e00
1c00
0000
0000
0000
0000
0000
0000
ENDCHAR
STARTCHAR MRoot2
ENCODING 150
SWIDTH 1080 0
DWIDTH 9 0
BBX 9 18 0 -4
BITMAP
0000
0000
0180
0100
0100
0100
0200
0200
7200
1400
1400
0c00
0800
0800
0800
0000
0000
0000
ENDCHAR
STARTCHAR MEqualAlmost
ENCODING 151
SWIDTH 1080 0
DWIDTH 9 0
BBX 9 18 0 -4
BITMAP
0000
0000
0000
0000
0000
0000
3200
5a00
4c00
0000
3200
5a00
4c00
0000
0000
0000
0000
0000
ENDCHAR
STARTCHAR MLessEq
ENCODING 152
SWIDTH 1080 0
DWIDTH 9 0
BBX 9 18 0 -4
BITMAP
0000
0000
0000
0000
0200
0c00
3000
4000
4000
3000
0c00
0200
0000
7e00
0000
0000
0000
0000
ENDCHAR
STARTCHAR MGreaterEq
ENCODING 153
SWIDTH 1080 0
DWIDTH 9 0
BBX 9 18 0 -4
BITMAP
0000
0000
0000
0000
4000
3000
0c00
0200
0200
0c00
3000
4000
0000
7e00
0000
0000
0000
0000
ENDCHAR
STARTCHAR SpaceNoBreak
ENCODING 154
SWIDTH 1080 0
DWIDTH 9 0
BBX 9 18 0 -4
BITMAP
0000
0000
0000
0000
0000
0000
0000
0000
0000
0000
0000
4100
4100
7f00
0000
0000
0000
0000
ENDCHAR
STARTCHAR MIntegralBotH
ENCODING 155
SWIDTH 1080 0
DWIDTH 9 0
BBX 9 18 0 -4
BITMAP
0800
0800
0800
0800
0800
0800
0800
0800
0800
0800
0800
0800
4800
7000
0000
0000
0000
0000
ENDCHAR
STARTCHAR SDegree
ENCODING 156
SWIDTH 1080 0
DWIDTH 9 0
BBX 9 18 0 -4
BITMAP
0000
0000
0000
1800
2400
2400
1800
0000
0000
0000
0000
0000
0000
0000
0000
0000
0000
0000
ENDCHAR
STARTCHAR Sup2
ENCODING 157
SWIDTH 1080 0
DWIDTH 9 0
BBX 9 18 0 -4
BITMAP
0000
0000
1c00
2200
0200
0400
0800
1000
3e00
0000
0000
0000
0000
0000
0000
0000
0000
0000
ENDCHAR
STARTCHAR PMiddleDot
ENCODING 158
SWIDTH 1080 0
DWIDTH 9 0
BBX 9 18 0 -4
BITMAP
0000
0000
0000
0000
0000
0000
0000
0000
1800
1800
0000
0000
0000
0000
0000
0000
0000
0000
ENDCHAR
STARTCHAR MDivision
ENCODING 159
SWIDTH 1080 0
DWIDTH 9 0
BBX 9 18 0 -4
BITMAP
0000
0000
0000
0000
0000
0800
1c00
0800
0000
7f00
0000
0800
1c00
0800
0000
0000
0000
0000
ENDCHAR
STARTCHAR GLineW2E2
ENCODING 160
SWIDTH 1080 0
DWIDTH 9 0
BBX 9 18 0 -4
BITMAP
0000
0000
0000
0000
0000
0000
0000
0000
ff80
0000
ff80
0000
0000
0000
0000
0000
0000
0000
ENDCHAR
STARTCHAR GLineN2S2
ENCODING 161
SWIDTH 1080 0
DWIDTH 9 0
BBX 9 18 0 -4
BITMAP
1400
1400
1400
1400
1400
1400
1400
1400
1400
1400
1400
1400
1400
1400
1400
1400
1400
1400
ENDCHAR
STARTCHAR GLineSE2
ENCODING 162
SWIDTH 1080 0
DWIDTH 9 0
BBX 9 18 0 -4
BITMAP
0000
0000
0000
0000
0000
0000
0000
0000
0f80
0800
0f80
0800
0800
0800
0800
0800
0800
0800
ENDCHAR
STARTCHAR CySmlIeDrss
ENCODING 163
SWIDTH 1080 0
DWIDTH 9 0
BBX 9 18 0 -4
BITMAP
0000
0000
0000
2400
2400
0000
1c00
2200
4200
7e00
4000
4000
2200
1c00
0000
0000
0000
0000
ENDCHAR
STARTCHAR GLineS2E
ENCODING 164
SWIDTH 1080 0
DWIDTH 9 0
BBX 9 18 0 -4
BITMAP
0000
0000
0000
0000
0000
0000
0000
0000
0000
1f80
1400
1400
1400
1400
1400
1400
1400
1400
ENDCHAR
STARTCHAR GLineS2E2
ENCODING 165
SWIDTH 1080 0
DWIDTH 9 0
BBX 9 18 0 -4
BITMAP
0000
0000
0000
0000
0000
0000
0000
0000
1f80
1000
1780
1400
1400
1400
1400
1400
1400
1400
ENDCHAR
STARTCHAR GLineSW2
ENCODING 166
SWIDTH 1080 0
DWIDTH 9 0
BBX 9 18 0 -4
BITMAP
0000
0000
0000
0000
0000
0000
0000
0000
f800
0800
f800
0800
0800
0800
0800
0800
0800
0800
ENDCHAR
STARTCHAR GLineS2W
ENCODING 167
SWIDTH 1080 0
DWIDTH 9 0
BBX 9 18 0 -4
BITMAP
0000
0000
0000
0000
0000
0000
0000
0000
0000
fc00
1400
1400
1400
1400
1400
1400
1400
1400
ENDCHAR
STARTCHAR GLineS2W2
ENCODING 168
SWIDTH 1080 0
DWIDTH 9 0
BBX 9 18 0 -4
BITMAP
0000
0000
0000
0000
0000
0000
0000
0000
fc00
0400
f400
1400
1400
1400
1400
1400
1400
1400
ENDCHAR
STARTCHAR GLineNE2
ENCODING 169
SWIDTH 1080 0
DWIDTH 9 0
BBX 9 18 0 -4
BITMAP
0800
0800
0800
0800
0800
0800
0800
0800
0f80
0800
0f80
0000
0000
0000
0000
0000
0000
0000
ENDCHAR
STARTCHAR GLineN2E
ENCODING 170
SWIDTH 1080 0
DWIDTH 9 0
BBX 9 18 0 -4
BITMAP
1400
1400
1400
1400
1400
1400
1400
1400
1400
1f80
0000
0000
0000
0000
0000
0000
0000
0000
ENDCHAR
STARTCHAR GLineN2E2
ENCODING 171
SWIDTH 1080 0
DWIDTH 9 0
BBX 9 18 0 -4
BITMAP
1400
1400
1400
1400
1400
1400
1400
1400
1780
1000
1f80
0000
0000
0000
0000
0000
0000
0000
ENDCHAR
STARTCHAR GLineNW2
ENCODING 172
SWIDTH 1080 0
DWIDTH 9 0
BBX 9 18 0 -4
BITMAP
0800
0800
0800
0800
0800
0800
0800
0800
f800
0800
f800
0000
0000
0000
0000
0000
0000
0000
ENDCHAR
STARTCHAR GLineN2W
ENCODING 173
SWIDTH 1080 0
DWIDTH 9 0
BBX 9 18 0 -4
BITMAP
1400
1400
1400
1400
1400
1400
1400
1400
1400
fc00
0000
0000
0000
0000
0000
0000
0000
0000
ENDCHAR
STARTCHAR GLineN2W2
ENCODING 174
SWIDTH 1080 0
DWIDTH 9 0
BBX 9 18 0 -4
BITMAP
1400
1400
1400
1400
1400
1400
1400
1400
f400
0400
fc00
0000
0000
0000
0000
0000
0000
0000
ENDCHAR
STARTCHAR GLineNSE2
ENCODING 175
SWIDTH 1080 0
DWIDTH 9 0
BBX 9 18 0 -4
BITMAP
0800
0800
0800
0800
0800
0800
0800
0800
0f80
0800
0f80
0800
0800
0800
0800
0800
0800
0800
ENDCHAR
STARTCHAR GLineN2S2E
ENCODING 176
SWIDTH 1080 0
DWIDTH 9 0
BBX 9 18 0 -4
BITMAP
1400
1400
1400
1400
1400
1400
1400
1400
1400
1780
1400
1400
1400
1400
1400
1400
1400
1400
ENDCHAR
STARTCHAR GLineN2S2E2
ENCODING 177
SWIDTH 1080 0
DWIDTH 9 0
BBX 9 18 0 -4
BITMAP
1400
1400
1400
1400
1400
1400
1400
1400
1780
1000
1780
1400
1400
1400
1400
1400
1400
1400
ENDCHAR
STARTCHAR GLineNSW2
ENCODING 178
SWIDTH 1080 0
DWIDTH 9 0
BBX 9 18 0 -4
BITMAP
0800
0800
0800
0800
0800
0800
0800
0800
f800
0800
f800
0800
0800
0800
0800
0800
0800
0800
ENDCHAR
STARTCHAR CyCapIeDrss
ENCODING 179
SWIDTH 1080 0
DWIDTH 9 0
BBX 9 18 0 -4
BITMAP
2400
2400
0000
7e00
4000
4000
4000
4000
7800
4000
4000
4000
4000
7e00
0000
0000
0000
0000
ENDCHAR
STARTCHAR GLineN2S2W
ENCODING 180
SWIDTH 1080 0
DWIDTH 9 0
BBX 9 18 0 -4
BITMAP
1400
1400
1400
1400
1400
1400
1400
1400
1400
f400
1400
1400
1400
1400
1400
1400
1400
1400
ENDCHAR
STARTCHAR GLineN2S2W2
ENCODING 181
SWIDTH 1080 0
DWIDTH 9 0
BBX 9 18 0 -4
BITMAP
1400
1400
1400
1400
1400
1400
1400
1400
f400
0400
f400
1400
1400
1400
1400
1400
1400
1400
ENDCHAR
STARTCHAR GLineSW2E2
ENCODING 182
SWIDTH 1080 0
DWIDTH 9 0
BBX 9 18 0 -4
BITMAP
0000
0000
0000
0000
0000
0000
0000
0000
ff80
0000
ff80
0800
0800
0800
0800
0800
0800
0800
ENDCHAR
STARTCHAR GLineS2WE
ENCODING 183
SWIDTH 1080 0
DWIDTH 9 0
BBX 9 18 0 -4
BITMAP
0000
0000
0000
0000
0000
0000
0000
0000
0000
ff80
1400
1400
1400
1400
1400
1400
1400
1400
ENDCHAR
STARTCHAR GLineS2W2E2
ENCODING 184
SWIDTH 1080 0
DWIDTH 9 0
BBX 9 18 0 -4
BITMAP
0000
0000
0000
0000
0000
0000
0000
0000
ff80
0000
f780
1400
1400
1400
1400
1400
1400
1400
ENDCHAR
STARTCHAR GLineNW2E2
ENCODING 185
SWIDTH 1080 0
DWIDTH 9 0
BBX 9 18 0 -4
BITMAP
0800
0800
0800
0800
0800
0800
0800
0800
ff80
0000
ff80
0000
0000
0000
0000
0000
0000
0000
ENDCHAR
STARTCHAR GLineN2WE
ENCODING 186
SWIDTH 1080 0
DWIDTH 9 0
BBX 9 18 0 -4
BITMAP
1400
1400
1400
1400
1400
1400
1400
1400
1400
ff80
0000
0000
0000
0000
0000
0000
0000
0000
ENDCHAR
STARTCHAR GLineN2W2E2
ENCODING 187
SWIDTH 1080 0
DWIDTH 9 0
BBX 9 18 0 -4
BITMAP
1400
1400
1400
1400
1400
1400
1400
1400
f780
0000
ff80
0000
0000
0000
0000
0000
0000
0000
ENDCHAR
STARTCHAR GLineNSW2E2
ENCODING 188
SWIDTH 1080 0
DWIDTH 9 0
BBX 9 18 0 -4
BITMAP
0800
0800
0800
0800
0800
0800
0800
0800
ff80
0000
ff80
0800
0800
0800
0800
0800
0800
0800
ENDCHAR
STARTCHAR GLineN2S2WE
ENCODING 189
SWIDTH 1080 0
DWIDTH 9 0
BBX 9 18 0 -4
BITMAP
1400
1400
1400
1400
1400
1400
1400
1400
1400
f780
1400
1400
1400
1400
1400
1400
1400
1400
ENDCHAR
STARTCHAR GLineN2S2W2E2
ENCODING 190
SWIDTH 1080 0
DWIDTH 9 0
BBX 9 18 0 -4
BITMAP
1400
1400
1400
1400
1400
1400
1400
1400
f780
0000
f780
1400
1400
1400
1400
1400
1400
1400
ENDCHAR
STARTCHAR SCopyright
ENCODING 191
SWIDTH 1080 0
DWIDTH 9 0
BBX 9 18 0 -4
BITMAP
0000
0000
0000
0000
3c00
4200
9900
a500
a100
a100
a500
9900
4200
3c00
0000
0000
0000
0000
ENDCHAR
STARTCHAR CySmlYu
ENCODING 192
SWIDTH 1080 0
DWIDTH 9 0
BBX 9 18 0 -4
BITMAP
0000
0000
0000
0000
0000
0000
8e00
9100
9100
f100
9100
9100
9100
8e00
0000
0000
0000
0000
ENDCHAR
STARTCHAR CySmlA
ENCODING 193
SWIDTH 1080 0
DWIDTH 9 0
BBX 9 18 0 -4
BITMAP
0000
0000
0000
0000
0000
0000
3c00
0200
0200
3e00
4200
4200
4600
3a00
0000
0000
0000
0000
ENDCHAR
STARTCHAR CySmlBe
ENCODING 194
SWIDTH 1080 0
DWIDTH 9 0
BBX 9 18 0 -4
BITMAP
0000
0000
0000
0400
1800
2000
4000
5c00
6200
4200
4200
4200
4200
3c00
0000
0000
0000
0000
ENDCHAR
STARTCHAR CySmlTse
ENCODING 195
SWIDTH 1080 0
DWIDTH 9 0
BBX 9 18 0 -4
BITMAP
0000
0000
0000
0000
0000
0000
4200
4200
4200
4200
4200
4200
4200
7f00
0100
0100
0100
0000
ENDCHAR
STARTCHAR CySmlDe
ENCODING 196
SWIDTH 1080 0
DWIDTH 9 0
BBX 9 18 0 -4
BITMAP
0000
0000
0000
0000
0000
0000
3e00
2200
2200
2200
2200
2200
2200
7f00
4100
4100
4100
0000
ENDCHAR
STARTCHAR CySmlIe
ENCODING 197
SWIDTH 1080 0
DWIDTH 9 0
BBX 9 18 0 -4
BITMAP
0000
0000
0000
0000
0000
0000
1c00
2200
4200
7e00
4000
4000
2200
1c00
0000
0000
0000
0000
ENDCHAR
STARTCHAR CySmlEf
ENCODING 198
SWIDTH 1080 0
DWIDTH 9 0
BBX 9 18 0 -4
BITMAP
0000
0000
0000
0800
0800
0800
3e00
4900
4900
4900
4900
4900
4900
3e00
0800
0800
0800
0000
ENDCHAR
STARTCHAR CySmlGhe
ENCODING 199
SWIDTH 1080 0
DWIDTH 9 0
BBX 9 18 0 -4
BITMAP
0000
0000
0000
0000
0000
0000
3e00
2000
2000
2000
2000
2000
2000
2000
0000
0000
0000
0000
ENDCHAR
STARTCHAR CySmlHa
ENCODING 200
SWIDTH 1080 0
DWIDTH 9 0
BBX 9 18 0 -4
BITMAP
0000
0000
0000
0000
0000
0000
4200
4200
2400
1800
1800
2400
4200
4200
0000
0000
0000
0000
ENDCHAR
STARTCHAR CySmlI
ENCODING 201
SWIDTH 1080 0
DWIDTH 9 0
BBX 9 18 0 -4
BITMAP
0000
0000
0000
0000
0000
0000
4200
4600
4a00
4a00
5200
5200
6200
4200
0000
0000
0000
0000
ENDCHAR
STARTCHAR CySmlIBreve
ENCODING 202
SWIDTH 1080 0
DWIDTH 9 0
BBX 9 18 0 -4
BITMAP
0000
0000
0000
2400
3c00
0000
4200
4600
4a00
4a00
5200
5200
6200
4200
0000
0000
0000
0000
ENDCHAR
STARTCHAR CySmlKa
ENCODING 203
SWIDTH 1080 0
DWIDTH 9 0
BBX 9 18 0 -4
BITMAP
0000
0000
0000
0000
0000
0000
4200
4400
4800
5000
7000
4800
4400
4200
0000
0000
0000
0000
ENDCHAR
STARTCHAR CySmlEl
ENCODING 204
SWIDTH 1080 0
DWIDTH 9 0
BBX 9 18 0 -4
BITMAP
0000
0000
0000
0000
0000
0000
0e00
1200
2200
2200
2200
2200
2200
c200
0000
0000
0000
0000
ENDCHAR
STARTCHAR CySmlEm
ENCODING 205
SWIDTH 1080 0
DWIDTH 9 0
BBX 9 18 0 -4
BITMAP
0000
0000
0000
0000
0000
0000
4100
4100
6300
6300
5500
5500
4900
4900
0000
0000
0000
0000
ENDCHAR
STARTCHAR CySmlEn
ENCODING 206
SWIDTH 1080 0
DWIDTH 9 0
BBX 9 18 0 -4
BITMAP
0000
0000
0000
0000
0000
0000
4200
4200
4200
7e00
4200
4200
4200
4200
0000
0000
0000
0000
ENDCHAR
STARTCHAR CySmlO
ENCODING 207
SWIDTH 1080 0
DWIDTH 9 0
BBX 9 18 0 -4
BITMAP
0000
0000
0000
0000
0000
0000
3c00
4200
4200
4200
4200
4200
4200
3c00
0000
0000
0000
0000
ENDCHAR
STARTCHAR CySmlPe
ENCODING 208
SWIDTH 1080 0
DWIDTH 9 0
BBX 9 18 0 -4
BITMAP
0000
0000
0000
0000
0000
0000
7e00
4200
4200
4200
4200
4200
4200
4200
0000
0000
0000
0000
ENDCHAR
STARTCHAR CySmlYa
ENCODING 209
SWIDTH 1080 0
DWIDTH 9 0
BBX 9 18 0 -4
BITMAP
0000
0000
0000
0000
0000
0000
3e00
4200
4200
3e00
1200
2200
2200
4200
0000
0000
0000
0000
ENDCHAR
STARTCHAR CySmlEr
ENCODING 210
SWIDTH 1080 0
DWIDTH 9 0
BBX 9 18 0 -4
BITMAP
0000
0000
0000
0000
0000
0000
5c00
6200
4200
4200
4200
4200
6200
5c00
4000
4000
4000
0000
ENDCHAR
STARTCHAR CySmlEs
ENCODING 211
SWIDTH 1080 0
DWIDTH 9 0
BBX 9 18 0 -4
BITMAP
0000
0000
0000
0000
0000
0000
1c00
2200
4000
4000
4000
4000
2200
1c00
0000
0000
0000
0000
ENDCHAR
STARTCHAR CySmlTe
ENCODING 212
SWIDTH 1080 0
DWIDTH 9 0
BBX 9 18 0 -4
BITMAP
0000
0000
0000
0000
0000
0000
7f00
0800
0800
0800
0800
0800
0800
0800
0000
0000
0000
0000
ENDCHAR
STARTCHAR CySmlU
ENCODING 213
SWIDTH 1080 0
DWIDTH 9 0
BBX 9 18 0 -4
BITMAP
0000
0000
0000
0000
0000
0000
4200
4200
4200
2400
2400
1400
1800
0800
1000
5000
2000
0000
ENDCHAR
STARTCHAR CySmlZhe
ENCODING 214
SWIDTH 1080 0
DWIDTH 9 0
BBX 9 18 0 -4
BITMAP
0000
0000
0000
0000
0000
0000
4900
4900
2a00
1c00
2a00
4900
4900
4900
0000
0000
0000
0000
ENDCHAR
STARTCHAR CySmlVe
ENCODING 215
SWIDTH 1080 0
DWIDTH 9 0
BBX 9 18 0 -4
BITMAP
0000
0000
0000
0000
0000
0000
7c00
4200
4200
7c00
4200
4200
4200
7c00
0000
0000
0000
0000
ENDCHAR
STARTCHAR CySmlSoftsign
ENCODING 216
SWIDTH 1080 0
DWIDTH 9 0
BBX 9 18 0 -4
BITMAP
0000
0000
0000
0000
0000
0000
4000
4000
4000
7c00
4200
4200
4200
7c00
0000
0000
0000
0000
ENDCHAR
STARTCHAR CySmlYeru
ENCODING 217
SWIDTH 1080 0
DWIDTH 9 0
BBX 9 18 0 -4
BITMAP
0000
0000
0000
0000
0000
0000
4100
4100
4100
7900
4500
4500
4500
7900
0000
0000
0000
0000
ENDCHAR
STARTCHAR CySmlZe
ENCODING 218
SWIDTH 1080 0
DWIDTH 9 0
BBX 9 18 0 -4
BITMAP
0000
0000
0000
0000
0000
0000
3c00
4200
0200
0c00
0200
0200
4200
3c00
0000
0000
0000
0000
ENDCHAR
STARTCHAR CySmlSha
ENCODING 219
SWIDTH 1080 0
DWIDTH 9 0
BBX 9 18 0 -4
BITMAP
0000
0000
0000
0000
0000
0000
4900
4900
4900
4900
4900
4900
4900
7f00
0000
0000
0000
0000
ENDCHAR
STARTCHAR CySmlE
ENCODING 220
SWIDTH 1080 0
DWIDTH 9 0
BBX 9 18 0 -4
BITMAP
0000
0000
0000
0000
0000
0000
3800
4400
0200
1e00
0200
0200
4400
3800
0000
0000
0000
0000
ENDCHAR
STARTCHAR CySmlShcha
ENCODING 221
SWIDTH 1080 0
DWIDTH 9 0
BBX 9 18 0 -4
BITMAP
0000
0000
0000
0000
0000
0000
4900
4900
4900
4900
4900
4900
4900
7f80
0080
0080
0080
0000
ENDCHAR
STARTCHAR CySmlChe
ENCODING 222
SWIDTH 1080 0
DWIDTH 9 0
BBX 9 18 0 -4
BITMAP
0000
0000
0000
0000
0000
0000
4200
4200
4200
3e00
0200
0200
0200
0200
0000
0000
0000
0000
ENDCHAR
STARTCHAR CySmlHardsign
ENCODING 223
SWIDTH 1080 0
DWIDTH 9 0
BBX 9 18 0 -4
BITMAP
0000
0000
0000
0000
0000
0000
f000
9000
1000
1e00
1100
1100
1100
1e00
0000
0000
0000
0000
ENDCHAR
STARTCHAR CyCapYu
ENCODING 224
SWIDTH 1080 0
DWIDTH 9 0
BBX 9 18 0 -4
BITMAP
0000
0000
0000
8e00
9100
9100
9100
9100
f100
9100
9100
9100
9100
8e00
0000
0000
0000
0000
ENDCHAR
STARTCHAR CyCapA
ENCODING 225
SWIDTH 1080 0
DWIDTH 9 0
BBX 9 18 0 -4
BITMAP
0000
0000
0000
0800
0800
0800
1400
1400
2200
2200
3e00
4100
4100
4100
0000
0000
0000
0000
ENDCHAR
STARTCHAR CyCapBe
ENCODING 226
SWIDTH 1080 0
DWIDTH 9 0
BBX 9 18 0 -4
BITMAP
0000
0000
0000
7c00
4000
4000
4000
4000
7c00
4200
4200
4200
4200
7c00
0000
0000
0000
0000
ENDCHAR
STARTCHAR CyCapTse
ENCODING 227
SWIDTH 1080 0
DWIDTH 9 0
BBX 9 18 0 -4
BITMAP
0000
0000
0000
4200
4200
4200
4200
4200
4200
4200
4200
4200
4200
7f00
0100
0100
0100
0000
ENDCHAR
STARTCHAR CyCapDe
ENCODING 228
SWIDTH 1080 0
DWIDTH 9 0
BBX 9 18 0 -4
BITMAP
0000
0000
0000
3e00
2200
2200
2200
2200
2200
2200
2200
4200
4200
ff00
8100
8100
8100
0000
ENDCHAR
STARTCHAR CyCapIe
ENCODING 229
SWIDTH 1080 0
DWIDTH 9 0
BBX 9 18 0 -4
BITMAP
0000
0000
0000
7e00
4000
4000
4000
4000
7800
4000
4000
4000
4000
7e00
0000
0000
0000
0000
ENDCHAR
STARTCHAR CyCapEf
ENCODING 230
SWIDTH 1080 0
DWIDTH 9 0
BBX 9 18 0 -4
BITMAP
0000
0000
0800
0800
1c00
2a00
4900
4900
4900
4900
4900
2a00
1c00
0800
0800
0000
0000
0000
ENDCHAR
STARTCHAR CyCapGhe
ENCODING 231
SWIDTH 1080 0
DWIDTH 9 0
BBX 9 18 0 -4
BITMAP
0000
0000
0000
3f00
2000
2000
2000
2000
2000
2000
2000
2000
2000
2000
0000
0000
0000
0000
ENDCHAR
STARTCHAR CyCapHa
ENCODING 232
SWIDTH 1080 0
DWIDTH 9 0
BBX 9 18 0 -4
BITMAP
0000
0000
0000
4200
4200
2400
2400
1800
1800
1800
2400
2400
4200
4200
0000
0000
0000
0000
ENDCHAR
STARTCHAR CyCapI
ENCODING 233
SWIDTH 1080 0
DWIDTH 9 0
BBX 9 18 0 -4
BITMAP
0000
0000
0000
4200
4200
4200
4600
4a00
4a00
5200
5200
6200
4200
4200
0000
0000
0000
0000
ENDCHAR
STARTCHAR CyCapIBreve
ENCODING 234
SWIDTH 1080 0
DWIDTH 9 0
BBX 9 18 0 -4
BITMAP
2400
3c00
0000
4200
4200
4200
4600
4a00
4a00
5200
5200
6200
4200
4200
0000
0000
0000
0000
ENDCHAR
STARTCHAR CyCapKa
ENCODING 235
SWIDTH 1080 0
DWIDTH 9 0
BBX 9 18 0 -4
BITMAP
0000
0000
0000
4200
4200
4400
4400
4800
5000
6800
4400
4400
4200
4200
0000
0000
0000
0000
ENDCHAR
STARTCHAR CyCapEl
ENCODING 236
SWIDTH 1080 0
DWIDTH 9 0
BBX 9 18 0 -4
BITMAP
0000
0000
0000
0e00
1200
2200
2200
2200
2200
2200
2200
2200
2200
c200
0000
0000
0000
0000
ENDCHAR
STARTCHAR CyCapEm
ENCODING 237
SWIDTH 1080 0
DWIDTH 9 0
BBX 9 18 0 -4
BITMAP
0000
0000
0000
4100
4100
6300
6300
5500
5500
4900
4900
4100
4100
4100
0000
0000
0000
0000
ENDCHAR
STARTCHAR CyCapEn
ENCODING 238
SWIDTH 1080 0
DWIDTH 9 0
BBX 9 18 0 -4
BITMAP
0000
0000
0000
4200
4200
4200
4200
4200
7e00
4200
4200
4200
4200
4200
0000
0000
0000
0000
ENDCHAR
STARTCHAR CyCapO
ENCODING 239
SWIDTH 1080 0
DWIDTH 9 0
BBX 9 18 0 -4
BITMAP
0000
0000
0000
3c00
4200
4200
4200
4200
4200
4200
4200
4200
4200
3c00
0000
0000
0000
0000
ENDCHAR
STARTCHAR CyCapPe
ENCODING 240
SWIDTH 1080 0
DWIDTH 9 0
BBX 9 18 0 -4
BITMAP
0000
0000
0000
7e00
4200
4200
4200
4200
4200
4200
4200
4200
4200
4200
0000
0000
0000
0000
ENDCHAR
STARTCHAR CyCapYa
ENCODING 241
SWIDTH 1080 0
DWIDTH 9 0
BBX 9 18 0 -4
BITMAP
0000
0000
0000
3e00
4200
4200
4200
4200
3e00
1200
2200
2200
4200
4200
0000
0000
0000
0000
ENDCHAR
STARTCHAR CyCapEr
ENCODING 242
SWIDTH 1080 0
DWIDTH 9 0
BBX 9 18 0 -4
BITMAP
0000
0000
0000
7c00
4200
4200
4200
4200
7c00
4000
4000
4000
4000
4000
0000
0000
0000
0000
ENDCHAR
STARTCHAR CyCapEs
ENCODING 243
SWIDTH 1080 0
DWIDTH 9 0
BBX 9 18 0 -4
BITMAP
0000
0000
0000
1c00
2200
4000
4000
4000
4000
4000
4000
4000
2200
1c00
0000
0000
0000
0000
ENDCHAR
STARTCHAR CyCapTe
ENCODING 244
SWIDTH 1080 0
DWIDTH 9 0
BBX 9 18 0 -4
BITMAP
0000
0000
0000
7f00
0800
0800
0800
0800
0800
0800
0800
0800
0800
0800
0000
0000
0000
0000
ENDCHAR
STARTCHAR CyCapU
ENCODING 245
SWIDTH 1080 0
DWIDTH 9 0
BBX 9 18 0 -4
BITMAP
0000
0000
0000
8100
4100
4200
2200
2200
1400
1400
0c00
0800
4800
3000
0000
0000
0000
0000
ENDCHAR
STARTCHAR CyCapZhe
ENCODING 246
SWIDTH 1080 0
DWIDTH 9 0
BBX 9 18 0 -4
BITMAP
0000
0000
0000
4900
4900
4900
4900
2a00
1c00
2a00
4900
4900
4900
4900
0000
0000
0000
0000
ENDCHAR
STARTCHAR CyCapVe
ENCODING 247
SWIDTH 1080 0
DWIDTH 9 0
BBX 9 18 0 -4
BITMAP
0000
0000
0000
7c00
4200
4200
4200
4400
7c00
4200
4200
4200
4200
7c00
0000
0000
0000
0000
ENDCHAR
STARTCHAR CyCapSoftsign
ENCODING 248
SWIDTH 1080 0
DWIDTH 9 0
BBX 9 18 0 -4
BITMAP
0000
0000
0000
4000
4000
4000
4000
4000
7c00
4200
4200
4200
4200
7c00
0000
0000
0000
0000
ENDCHAR
STARTCHAR CyCapYeru
ENCODING 249
SWIDTH 1080 0
DWIDTH 9 0
BBX 9 18 0 -4
BITMAP
0000
0000
0000
4100
4100
4100
4100
4100
7900
4500
4500
4500
4500
7900
0000
0000
0000
0000
ENDCHAR
STARTCHAR CyCapZe
ENCODING 250
SWIDTH 1080 0
DWIDTH 9 0
BBX 9 18 0 -4
BITMAP
0000
0000
0000
3800
4400
0200
0200
0400
1800
0400
0200
0200
4400
3800
0000
0000
0000
0000
ENDCHAR
STARTCHAR CyCapSha
ENCODING 251
SWIDTH 1080 0
DWIDTH 9 0
BBX 9 18 0 -4
BITMAP
0000
0000
0000
4900
4900
4900
4900
4900
4900
4900
4900
4900
4900
7f00
0000
0000
0000
0000
ENDCHAR
STARTCHAR CyCapE
ENCODING 252
SWIDTH 1080 0
DWIDTH 9 0
BBX 9 18 0 -4
BITMAP
0000
0000
0000
3800
4400
0200
0200
0200
3e00
0200
0200
0200
4400
3800
0000
0000
0000
0000
ENDCHAR
STARTCHAR CyCapShcha
ENCODING 253
SWIDTH 1080 0
DWIDTH 9 0
BBX 9 18 0 -4
BITMAP
0000
0000
0000
4900
4900
4900
4900
4900
4900
4900
4900
4900
4900
7f80
0080
0080
0080
0000
ENDCHAR
STARTCHAR CyCapChe
ENCODING 254
SWIDTH 1080 0
DWIDTH 9 0
BBX 9 18 0 -4
BITMAP
0000
0000
0000
4200
4200
4200
4200
4200
3e00
0200
0200
0200
0200
0200
0000
0000
0000
0000
ENDCHAR
STARTCHAR CyCapHardsign
ENCODING 255
SWIDTH 1080 0
DWIDTH 9 0
BBX 9 18 0 -4
BITMAP
0000
0000
0000
f000
1000
1000
1000
1000
1e00
1100
1100
1100
1100
1e00
0000
0000
0000
0000
ENDCHAR
ENDFONT
